<?xml version="1.0" standalone="no"?>
<!DOCTYPE svg PUBLIC "-//W3C//DTD SVG 20010904//EN"
 "http://www.w3.org/TR/2001/REC-SVG-20010904/DTD/svg10.dtd">
<svg version="1.0" xmlns="http://www.w3.org/2000/svg"
 width="282.000000pt" height="275.000000pt" viewBox="0 0 282.000000 275.000000"
 preserveAspectRatio="xMidYMid meet">

<g transform="translate(0.000000,275.000000) scale(0.100000,-0.100000)"
fill="#000000" stroke="none">
<path d="M0 2604 l0 -146 108 3 c109 2 148 -5 121 -22 -8 -5 -62 -9 -121 -9
l-108 0 0 -830 c0 -456 4 -830 8 -830 4 0 14 6 21 12 10 11 16 8 31 -12 11
-14 20 -37 20 -52 0 -14 6 -29 13 -32 6 -3 1 -3 -13 0 -14 3 -37 14 -53 25
l-27 20 0 -23 c0 -48 12 -66 51 -81 36 -14 39 -18 33 -44 -4 -15 -15 -46 -25
-68 -49 -108 -59 -163 -59 -342 l0 -173 1410 0 1410 0 0 1375 0 1375 -505 0
-505 0 -1 -112 c0 -62 -4 -133 -7 -158 -7 -45 -7 -45 -47 -45 -37 0 -40 2 -43
29 -2 16 2 32 10 37 11 7 11 9 0 9 -9 0 -11 7 -6 23 8 24 12 185 6 205 -3 9
-47 12 -172 12 -165 0 -169 0 -172 -21 -2 -12 -14 -31 -29 -41 -35 -26 -77
-11 -85 32 l-7 30 -78 0 -78 0 -20 -62 -19 -63 5 63 6 62 -72 0 -71 0 -16 -40
c-9 -22 -20 -38 -24 -35 -5 3 -14 -3 -20 -12 -10 -16 -11 -16 -5 2 4 11 9 35
12 53 l6 32 -442 0 -441 0 0 -146z m2350 86 c0 -21 -24 -28 -35 -10 -8 14 3
30 21 30 8 0 14 -9 14 -20z m-290 -30 c0 -5 -4 -10 -9 -10 -6 0 -13 5 -16 10
-3 6 1 10 9 10 9 0 16 -4 16 -10z m-1200 -40 c0 -23 -25 -27 -33 -6 -7 16 1
26 20 26 7 0 13 -9 13 -20z m-15 -62 c-9 -41 -18 -51 -41 -46 -43 8 -18 78 28
78 17 0 19 -4 13 -32z m205 -24 c0 -4 -5 -24 -12 -45 -16 -54 -36 -51 -34 6 1
39 4 45 24 45 12 0 22 -3 22 -6z m-245 -83 c0 -8 -8 -19 -17 -25 -22 -13 -44
5 -34 29 7 20 51 16 51 -4z m638 -38 c-7 -2 -19 -2 -25 0 -7 3 -2 5 12 5 14 0
19 -2 13 -5z m-149 -39 c5 -13 14 -15 41 -11 20 3 33 2 30 -3 -5 -8 43 -18 95
-19 13 0 32 7 42 16 10 9 18 12 18 7 0 -5 33 -9 73 -9 56 0 80 -5 103 -20 16
-11 32 -18 36 -17 15 4 26 -34 31 -103 3 -39 6 -70 7 -70 1 0 3 -14 5 -32 2
-17 8 -40 14 -51 6 -12 11 -37 11 -56 0 -20 4 -36 8 -36 12 0 36 -76 29 -93
-3 -8 -2 -32 3 -53 6 -24 5 -41 -1 -45 -5 -3 -7 -14 -3 -24 5 -13 4 -16 -4
-11 -14 8 -15 5 -31 -82 -15 -80 -42 -162 -53 -162 -4 0 -8 -14 -8 -31 0 -26
-2 -30 -15 -19 -12 10 -15 7 -20 -13 -4 -14 -15 -33 -26 -43 -10 -9 -19 -26
-19 -36 0 -17 -5 -19 -37 -14 -21 4 -45 2 -53 -4 -8 -5 -11 -10 -7 -10 16 0
-22 -30 -37 -30 -21 0 -20 -16 0 -24 16 -6 16 -8 0 -24 -9 -10 -16 -23 -16
-29 0 -19 -30 -24 -30 -5 -1 13 -4 11 -15 -8 -10 -18 -14 -20 -15 -8 0 11 -6
15 -20 11 -12 -3 -22 1 -26 11 -3 9 -15 16 -25 16 -17 0 -19 6 -15 45 5 50 -8
67 -29 39 -7 -11 -19 -19 -26 -19 -7 0 -14 -6 -17 -14 -3 -8 0 -11 6 -8 5 4
12 -2 15 -13 9 -33 -19 -23 -34 13 -7 17 -20 37 -29 44 -10 8 -11 12 -2 13 6
0 12 4 12 9 0 13 -49 20 -55 7 -3 -6 -3 3 1 19 4 23 3 27 -6 18 -15 -14 -50
13 -50 39 0 10 -4 18 -10 18 -5 0 -10 -5 -10 -11 0 -6 -7 -4 -15 5 -8 8 -15
19 -15 25 0 6 -5 11 -10 11 -6 0 -10 6 -9 13 1 6 -1 20 -5 29 -6 14 -12 15
-27 7 -16 -8 -21 -5 -29 16 -6 15 -10 35 -10 45 0 10 -6 20 -12 23 -10 3 -10
7 -1 18 7 8 9 25 6 38 -10 40 -22 2 -17 -56 5 -51 4 -53 -20 -53 -29 0 -77 66
-96 134 l-12 44 -62 11 c-35 6 -79 11 -99 11 -40 0 -63 26 -52 60 9 28 21 25
58 -13 24 -23 42 -32 63 -31 100 4 94 2 94 34 0 44 20 80 44 80 30 0 43 -11
51 -43 12 -47 22 -30 33 59 9 65 17 92 35 114 27 31 45 126 28 143 -7 7 -7 16
0 28 6 12 5 26 -2 43 -25 54 36 126 121 143 81 16 117 15 124 -3z m-896 -199
c2 -11 13 -30 25 -42 16 -18 17 -23 5 -23 -8 0 -24 -10 -36 -23 -20 -22 -21
-27 -10 -81 9 -40 19 -61 33 -68 11 -6 22 -12 24 -14 2 -1 -7 -17 -19 -33 -23
-33 -21 -61 7 -92 12 -15 10 -17 -24 -22 -42 -7 -68 8 -57 32 4 9 8 99 10 201
1 102 3 186 3 188 3 13 36 -7 39 -23z m1649 -118 c2 -67 4 -137 5 -154 1 -31
-7 -52 -16 -42 -5 4 -9 210 -7 293 1 22 4 36 9 32 4 -4 8 -62 9 -129z m-1314
76 c-5 -13 -7 -13 -15 2 -9 15 -12 15 -34 0 -28 -18 -34 0 -7 20 22 16 64 -1
56 -22z m-60 -114 c6 -95 13 -114 38 -104 12 4 15 25 14 100 -1 77 1 93 12 84
9 -9 13 -8 13 0 0 7 5 9 11 6 6 -4 7 -19 4 -36 -4 -19 -2 -36 6 -45 10 -12 10
-20 1 -34 -6 -11 -8 -22 -3 -25 5 -3 -4 -19 -21 -36 -23 -23 -38 -29 -62 -27
l-31 3 -3 103 c-1 56 1 102 6 102 5 0 12 -41 15 -91z m1958 -31 c23 -28 23
-34 3 -42 -8 -3 -13 -2 -10 2 2 4 0 14 -5 22 -8 13 -10 13 -19 0 -8 -12 -10
-9 -10 13 0 33 15 35 41 5z m-707 -117 c3 -5 -1 -14 -9 -21 -8 -7 -14 -22 -14
-34 1 -17 2 -17 6 -3 2 9 10 17 16 17 17 0 6 -119 -17 -190 -10 -30 -20 -61
-22 -68 -2 -8 -12 -12 -21 -10 -14 3 -17 12 -15 43 2 22 8 42 13 43 5 2 6 8 3
14 -4 6 -6 49 -5 97 2 75 5 88 24 103 25 20 34 22 41 9z m-1371 -38 c14 -8 7
-32 -12 -43 -30 -16 -71 -13 -71 6 0 35 20 54 48 48 15 -4 30 -9 35 -11z
m-453 -173 c0 -5 -7 -10 -16 -10 -8 0 -12 5 -9 10 3 6 10 10 16 10 5 0 9 -4 9
-10z m20 -119 c0 -3 -9 -12 -20 -19 -19 -11 -20 -10 -20 24 0 36 0 37 20 19
11 -10 20 -21 20 -24z m1998 -45 c1 -33 -2 -56 -8 -56 -6 0 -10 26 -10 61 0
75 15 71 18 -5z m103 -44 c-13 -23 -23 32 -14 76 l7 37 7 -49 c5 -28 4 -56 0
-64z m-1169 46 c-7 -7 -12 -8 -12 -2 0 14 12 26 19 19 2 -3 -1 -11 -7 -17z
m29 -168 c5 0 9 -4 9 -10 0 -16 87 -143 129 -189 36 -38 46 -54 39 -63 -5 -9
25 -48 33 -43 5 4 9 1 9 -6 0 -9 3 -9 14 0 11 9 15 8 20 -4 9 -24 45 2 38 28
-5 19 -4 19 21 3 16 -11 26 -13 29 -6 5 15 41 20 50 6 5 -8 8 -7 8 2 0 18 37
15 44 -4 3 -8 11 -12 17 -9 6 4 8 13 5 21 -3 8 1 14 9 14 17 0 18 -4 9 -49 -5
-25 -9 -29 -20 -20 -10 8 -14 8 -14 1 0 -6 4 -13 10 -17 5 -3 7 -13 4 -23 -4
-10 -2 -13 3 -7 12 15 40 17 48 4 4 -6 2 -16 -5 -22 -10 -9 -11 -9 -6 3 4 8
-1 5 -11 -6 -10 -12 -27 -26 -38 -32 -19 -11 -19 -11 3 -12 12 0 22 -4 22 -10
0 -5 5 -10 11 -10 6 0 8 7 5 15 -3 9 -1 15 7 14 27 -3 35 2 40 26 3 19 -2 31
-19 44 -13 10 -24 25 -24 32 0 11 2 11 10 -1 5 -8 11 -12 13 -10 19 23 37 57
37 69 0 8 -3 11 -7 7 -5 -4 -8 -12 -8 -18 0 -6 -8 -12 -18 -14 -12 -1 -17 2
-14 11 3 7 0 18 -6 24 -8 8 0 21 29 49 22 20 43 45 47 55 3 9 13 17 21 17 9 0
13 6 11 13 -3 6 11 44 30 82 19 39 35 65 35 60 0 -6 10 -16 21 -24 20 -12 21
-11 15 6 -5 12 -4 15 3 8 5 -5 28 -56 50 -113 39 -98 40 -104 25 -128 -9 -13
-13 -24 -10 -24 10 0 -23 -62 -47 -87 -11 -12 -24 -20 -30 -16 -6 3 -7 2 -4
-4 7 -11 -31 -50 -76 -78 -24 -16 -30 -16 -38 -4 -7 12 -9 11 -9 -2 0 -19 -16
-34 -48 -44 -23 -7 -23 -7 -7 24 8 17 11 31 6 31 -11 0 -32 -25 -30 -36 6 -32
-28 -48 -69 -33 -17 7 -22 4 -23 -9 0 -9 -3 -12 -5 -5 -4 9 -13 9 -31 2 -35
-13 -68 -2 -53 16 9 11 8 13 -8 10 -13 -2 -28 9 -48 36 -16 21 -35 39 -42 39
-7 0 -11 4 -8 9 3 4 -5 22 -17 39 -16 21 -27 28 -37 22 -11 -7 -11 -12 -2 -23
7 -7 8 -18 4 -22 -4 -5 -1 -5 6 -1 11 6 14 0 11 -20 0 -4 5 -10 13 -15 7 -5
13 -12 13 -16 2 -20 17 -53 24 -49 4 3 12 -4 19 -15 7 -11 8 -19 2 -19 -5 0
-10 4 -10 10 0 5 -7 7 -15 4 -8 -4 -15 -1 -15 4 0 6 -9 9 -20 7 -11 -2 -20 1
-20 6 0 6 -4 8 -9 5 -18 -12 -77 22 -155 89 -99 84 -128 177 -77 245 26 37 44
104 43 170 0 52 0 53 10 23 6 -18 15 -33 19 -33z m-671 30 c13 -9 13 -11 0
-20 -21 -14 -40 -12 -40 3 0 26 16 33 40 17z m-200 -20 c16 -30 3 -41 -38 -35
-23 3 -48 -1 -66 -10 -38 -20 -38 -20 -34 18 3 30 5 32 38 29 19 -1 42 2 50 8
23 15 38 12 50 -10z m-115 -181 c13 -24 22 -30 42 -27 15 2 28 -3 30 -9 7 -19
-81 -17 -96 1 -10 12 -6 66 5 66 2 0 11 -14 19 -31z m203 -32 c2 -12 -3 -17
-17 -17 -12 0 -21 6 -21 13 0 31 32 34 38 4z m-68 -315 c0 -5 -13 -21 -30 -37
l-30 -29 0 31 c0 22 6 33 18 36 29 8 42 7 42 -1z"/>
<path d="M1604 2066 c-39 -6 -79 -17 -88 -25 -16 -14 -15 -16 10 -29 18 -10
53 -14 97 -13 61 2 73 -1 104 -25 19 -15 42 -43 51 -63 15 -36 15 -36 23 -11
10 37 10 52 -1 45 -6 -4 -10 5 -10 21 0 29 -77 115 -101 113 -8 -1 -46 -7 -85
-13z"/>
<path d="M1123 2028 c-32 -23 -77 -104 -67 -120 3 -5 20 2 37 15 100 75 94 72
173 69 62 -2 75 0 81 14 11 30 -24 44 -112 44 -67 0 -85 -4 -112 -22z"/>
<path d="M1551 1960 c-13 -11 -19 -20 -13 -20 5 0 9 -8 8 -17 0 -10 7 -18 19
-20 11 -1 14 0 7 3 -6 3 -10 10 -6 15 10 16 21 10 33 -20 12 -27 15 -28 77
-29 61 0 64 1 58 20 -3 11 -7 26 -8 33 -4 28 -30 47 -58 43 -15 -3 -28 -1 -28
4 0 16 -65 7 -89 -12z m129 -50 c0 -5 -10 -15 -22 -21 -23 -12 -23 -12 -4 10
21 23 26 26 26 11z"/>
<path d="M1210 1963 c-54 -9 -78 -24 -84 -55 -9 -48 -9 -48 44 -48 29 0 50 5
50 11 0 5 4 8 8 5 5 -3 16 9 26 25 17 29 18 30 43 14 13 -9 27 -14 31 -11 3 3
0 6 -6 6 -7 0 -12 9 -12 21 0 11 -4 17 -10 14 -6 -3 -7 1 -4 9 5 13 -1 16 -27
15 -19 -1 -45 -4 -59 -6z m-5 -81 c-8 -8 -25 10 -25 26 0 13 2 13 14 -4 8 -10
13 -21 11 -22z"/>
<path d="M1358 1913 c-2 -24 0 -47 5 -50 4 -2 6 -12 3 -21 -2 -10 -7 -33 -10
-52 l-6 -35 19 40 c24 49 28 150 7 158 -11 4 -15 -6 -18 -40z"/>
<path d="M892 1831 c7 -11 21 -22 31 -25 17 -4 17 -2 -4 20 -27 29 -44 32 -27
5z"/>
<path d="M1490 1795 c0 -8 4 -15 10 -15 5 0 7 7 4 15 -4 8 -8 15 -10 15 -2 0
-4 -7 -4 -15z"/>
<path d="M951 1754 c0 -11 3 -14 6 -6 3 7 2 16 -1 19 -3 4 -6 -2 -5 -13z"/>
<path d="M1510 1758 c0 -9 5 -20 10 -23 13 -8 13 5 0 25 -8 13 -10 13 -10 -2z"/>
<path d="M1321 1709 c-1 -21 26 -56 36 -46 4 5 1 14 -8 20 -9 7 -18 19 -22 27
-5 13 -6 13 -6 -1z"/>
<path d="M1385 1712 c-5 -4 -11 -21 -12 -38 -2 -36 -32 -89 -50 -90 -7 -1 -19
-2 -26 -2 -7 -1 -24 -19 -38 -39 -22 -35 -23 -39 -9 -54 9 -8 22 -13 30 -11 7
3 10 0 6 -7 -4 -6 -3 -11 3 -11 6 0 8 -6 5 -14 -3 -8 14 -23 50 -40 31 -15 56
-32 56 -37 0 -6 5 -7 10 -4 6 3 10 2 10 -3 0 -5 7 -9 15 -9 9 0 14 6 11 13 -3
7 7 15 22 19 42 10 72 33 66 50 -5 11 -10 13 -19 5 -13 -11 -160 -9 -171 3
-10 10 6 27 27 27 10 0 19 5 19 10 0 6 27 10 60 10 49 0 58 -3 54 -15 -4 -10
0 -15 15 -15 12 0 21 -4 21 -10 0 -21 37 -9 68 21 37 36 41 59 12 66 -11 3
-20 9 -20 13 0 5 -13 11 -29 15 -30 6 -60 34 -80 73 -6 12 -15 22 -20 22 -11
0 -28 -48 -30 -85 -1 -23 2 -26 11 -17 16 16 28 15 28 -3 0 -8 8 -15 18 -16 9
0 -3 -6 -28 -12 -25 -7 -46 -9 -48 -5 -2 5 -14 8 -27 8 -28 0 -40 26 -17 36 9
4 22 6 28 6 16 -3 11 77 -6 89 -11 7 -8 8 12 3 34 -8 98 13 98 32 0 18 -11 18
-36 -1 -26 -20 -43 -19 -62 5 -10 11 -21 17 -27 12z m235 -192 c0 -5 -2 -10
-4 -10 -3 0 -8 5 -11 10 -3 6 -1 10 4 10 6 0 11 -4 11 -10z m-55 -50 c3 -5 1
-10 -4 -10 -6 0 -11 5 -11 10 0 6 2 10 4 10 3 0 8 -4 11 -10z"/>
<path d="M950 1675 c0 -8 5 -15 10 -15 6 0 10 7 10 15 0 8 -4 15 -10 15 -5 0
-10 -7 -10 -15z"/>
<path d="M1520 1671 c0 -7 -4 -9 -10 -6 -5 3 -10 1 -10 -4 0 -6 4 -11 9 -11
13 0 25 20 17 27 -3 4 -6 1 -6 -6z"/>
<path d="M1030 1600 c0 -5 5 -10 10 -10 6 0 10 5 10 10 0 6 -4 10 -10 10 -5 0
-10 -4 -10 -10z"/>
<path d="M1287 1355 c-8 -18 11 -31 25 -17 11 11 3 32 -12 32 -4 0 -10 -7 -13
-15z"/>
<path d="M1912 1720 c0 -14 2 -19 5 -12 2 6 2 18 0 25 -3 6 -5 1 -5 -13z"/>
<path d="M1860 1609 c0 -5 5 -7 10 -4 6 3 10 8 10 11 0 2 -4 4 -10 4 -5 0 -10
-5 -10 -11z"/>
<path d="M1771 1262 c-2 -27 -73 -123 -87 -118 -16 6 -19 -10 -4 -19 5 -3 1
-14 -10 -25 -22 -22 -26 -40 -10 -40 6 0 23 21 38 47 15 25 34 54 42 63 22 22
43 76 37 92 -4 10 -6 10 -6 0z"/>
<path d="M1117 1005 c20 -30 40 -55 45 -55 5 0 6 -5 2 -12 -4 -7 -3 -8 4 -4 7
4 12 2 12 -4 0 -7 9 -23 20 -37 24 -31 25 -18 2 18 -27 42 -101 137 -111 143
-5 4 6 -18 26 -49z"/>
<path d="M1651 948 c-14 -23 -14 -23 8 -4 22 20 25 26 13 26 -4 0 -13 -10 -21
-22z"/>
<path d="M1330 902 c0 -5 7 -15 15 -22 8 -7 15 -8 15 -2 0 5 -7 15 -15 22 -8
7 -15 8 -15 2z"/>
<path d="M1240 880 c-8 -5 -10 -10 -5 -10 6 0 17 5 25 10 8 5 11 10 5 10 -5 0
-17 -5 -25 -10z"/>
<path d="M1530 861 c0 -6 4 -12 8 -15 5 -3 9 1 9 9 0 8 -4 15 -9 15 -4 0 -8
-4 -8 -9z"/>
<path d="M1420 820 c-13 -8 -12 -10 3 -10 9 0 17 5 17 10 0 12 -1 12 -20 0z"/>
</g>
</svg>
